# xmcd CD database file
#
# Track frame offsets:
#	150
#	15850
#	44137
#	72435
#	98447
#	118900
#	142330
#	156067
#	178440
#	202857
#	220590
#
# Disc length: 3268 seconds
#
# Revision: 0
# Processed by: cddbd v1.4PL0 Copyright (c) Steve Scherf et al.
# Submitted via: CDex 1.50
#
DISCID=9e0cc20b
DTITLE=Monica Worth - Never Let Me Go
DYEAR=2000
DGENRE=Jazz
TTITLE0=Shall We Dance?
TTITLE1=Lazy Afternoon
TTITLE2=You Must Believe in Spring
TTITLE3=I'm Going Out of My Head for You
TTITLE4=Hello Young Lovers
TTITLE5=Never Let Me Go
TTITLE6=I'll Be Seeing You
TTITLE7=I'm Old Fashion
TTITLE8=Overjoyed
TTITLE9=I'm in the Mood for Love
TTITLE10=It Never Entered My Mind
EXTD=YEAR: 2000
EXTT0=
EXTT1=
EXTT2=
EXTT3=
EXTT4=
EXTT5=
EXTT6=
EXTT7=
EXTT8=
EXTT9=
EXTT10=
PLAYORDER=
